<?xml version="1.0" encoding="UTF-8"?>
<svg id="Layer_1" data-name="Layer 1" xmlns="http://www.w3.org/2000/svg" version="1.1" viewBox="0 0 24 24">
  <defs>
    <style>
      .cls-1 {
        fill: #c49a6c;
      }

      .cls-1, .cls-2 {
        stroke-width: 0px;
      }

      .cls-2 {
        fill: none;
      }
    </style>
  </defs>
  <path class="cls-2" d="M0,0h24v24H0V0Z"/>
  <path class="cls-2" d="M0,0h24v24H0V0Z"/>
  <path class="cls-1" d="M19.5,14l2,3.4c.3.5.1,1.1-.4,1.4-.1,0-.2.1-.3.1h-.1s-.1,0-.1,0l-2.9-.2-1.3,2.6c-.2.5-.8.7-1.3.5,0,0-.2-.1-.3-.2h0c0,0,0-.2,0-.2l-2-3.4c2.8-.2,5.4-1.7,6.9-4Z"/>
  <path class="cls-1" d="M11.4,18l-2,3.4c-.3.5-.9.6-1.4.4,0,0-.2-.1-.3-.2h0c0-.1,0-.2,0-.2l-1.3-2.6-2.9.2c-.6,0-1-.4-1.1-.9,0-.1,0-.2,0-.4h0c0-.1,0-.2,0-.2l2-3.4c1.6,2.3,4.1,3.8,6.9,4h0Z"/>
  <path class="cls-1" d="M12,2h.2c3.8.1,6.8,3.2,6.8,7v.2s0,.2,0,.2v.2s0,.2,0,.2v.2c0,.4-.2.9-.3,1.3v.3c-.1,0-.3.3-.3.3-1.6,3.5-5.8,5-9.3,3.4-1.5-.7-2.7-1.9-3.4-3.4v-.3c-.1,0-.2-.1-.2-.1v-.2c0,0-.2-.3-.2-.3,0-.1,0-.2,0-.3v-.3c0,0-.1-.3-.1-.3h0c0-.1,0-.5,0-.5v-.4s0-.3,0-.3c0-3.8,3-6.9,6.8-7,0,0,.2,0,.2,0Z"/>
</svg>