<?xml version="1.0" encoding="UTF-8"?>
<svg id="Layer_1" data-name="Layer 1" xmlns="http://www.w3.org/2000/svg" version="1.1" viewBox="0 0 24 24">
  <defs>
    <style>
      .cls-1 {
        fill: #c49a6c;
      }

      .cls-1, .cls-2 {
        stroke-width: 0px;
      }

      .cls-2 {
        fill: none;
      }
    </style>
  </defs>
  <path class="cls-2" d="M0,0h24v24H0V0Z"/>
  <path class="cls-1" d="M12,2c.8,0,1.5.3,2.1.8h.2c0,.1.7.8.7.8.2.2.4.3.7.3h.1s1,0,1,0c1.7,0,3.1,1.3,3.2,3v.2s0,1,0,1c0,.3,0,.5.3.7h0c0,.1.7.8.7.8,1.2,1.2,1.3,3.1.1,4.4v.2c-.1,0-.8.7-.8.7-.2.2-.3.4-.3.7h0v1.1c0,1.7-1.3,3.1-3,3.2h-.2s-1,0-1,0c-.3,0-.5,0-.7.3h-.1c0,0-.7.8-.7.8-1.2,1.2-3.1,1.3-4.4.1h-.2c0-.1-.7-.8-.7-.8-.2-.2-.4-.3-.7-.3h-.1s-1,0-1,0c-1.7,0-3.1-1.3-3.2-3v-.2s0-1,0-1c0-.3,0-.5-.3-.7h0c0-.1-.7-.8-.7-.8-1.2-1.2-1.3-3.1-.1-4.4v-.2c.1,0,.8-.7.8-.7.2-.2.3-.4.3-.7h0v-1.3c0-1.6,1.4-2.9,3-3h.2s1,0,1,0c.3,0,.5,0,.7-.3h.1c0,0,.7-.8.7-.8.6-.6,1.4-.9,2.3-.9ZM15.7,9.3c-.4-.4-1-.4-1.4,0l-3.3,3.3-1.3-1.3h0c-.4-.4-1.1-.3-1.4,0-.3.4-.3,1,0,1.3l2,2h0c.4.4,1,.4,1.3,0l4-4h0c.3-.5.3-1.1,0-1.4Z"/>
</svg>