<?xml version="1.0" encoding="UTF-8"?>
<svg id="Layer_1" data-name="Layer 1" xmlns="http://www.w3.org/2000/svg" version="1.1" viewBox="0 0 24 24">
  <defs>
    <style>
      .cls-1 {
        fill: #c49a6c;
      }

      .cls-1, .cls-2 {
        stroke-width: 0px;
      }

      .cls-2 {
        fill: none;
      }
    </style>
  </defs>
  <path class="cls-2" d="M0,0h24v24H0V0Z"/>
  <path class="cls-1" d="M7,3.1c1.8-.3,3.6.2,5,1.4h0s0,0,0,0c1.3-1.1,3-1.7,4.7-1.4h.2c3.3.6,5.5,3.7,4.9,7-.2,1.2-.7,2.2-1.5,3.1l-.2.2h0s-7.4,7.4-7.4,7.4c-.4.4-.9.4-1.3,0h0c0,0-7.5-7.5-7.5-7.5-2.4-2.3-2.4-6.1-.1-8.5.9-.9,2-1.5,3.3-1.7Z"/>
</svg>