<?xml version="1.0" encoding="UTF-8"?>
<svg xmlns="http://www.w3.org/2000/svg" version="1.1" viewBox="0 0 512 512">
  <defs>
    <style>
      .cls-1 {
        fill: #f9fcf8;
      }
    </style>
  </defs>
  <!-- Generator: Adobe Illustrator 28.7.1, SVG Export Plug-In . SVG Version: 1.2.0 Build 142)  -->
  <g>
    <g id="Layer_1">
      <path class="cls-1" d="M465.9,255.15c-13.67,0-25.82,6.07-34.26,15.52-33.63-.41-70.9-54.68-83.46-106.32,0-82.12-36.38-81.06-45-69.35-8.51-27.67-85.14-106.42-110.68-34.05C115.88,5.6,60.54,9.85,69.06,69.45c-28.12-7.54-51.59-10.88-69.65-9.89v498.24s0,0,0,0v-84.83h314.04c51.21-7.99,141.51-75.26,149.67-125.59.18-.08.32-.2.5-.28.77.04,1.5.23,2.28.23,25.46,0,46.1-20.64,46.1-46.1s-20.64-46.1-46.1-46.1Z"/>
    </g>
  </g>
</svg>