<?xml version="1.0" encoding="UTF-8"?>
<svg xmlns="http://www.w3.org/2000/svg" version="1.1" viewBox="0 0 512 291">
  <defs>
    <style>
      .cls-1 {
        fill: #f7fff7;
      }
    </style>
  </defs>
  <!-- Generator: Adobe Illustrator 28.7.1, SVG Export Plug-In . SVG Version: 1.2.0 Build 142)  -->
  <g>
    <g id="Layer_1">
      <path class="cls-1" d="M44.46,263.17c-5.84,6.77-9.13,16.63-10.13,27.83h403.1c19.62-16.77,35.17-36.39,37.92-53.36.13-.06.23-.14.37-.2.56.03,1.09.17,1.67.17,18.6,0,33.67-15.08,33.67-33.67s-15.08-33.67-33.67-33.67h-.03c-9.98.01-18.86,4.44-25.02,11.34-24.56-.3-51.79-39.94-60.96-77.66,0-59.99-26.57-59.21-32.87-50.66-6.22-20.21-62.19-77.74-80.85-24.88-55.97-40.42-96.39-37.31-90.17,6.22-63.74-17.1-94.84-4.66-76.18,40.42-80.85,12.44-107.28,54.3-57.52,82.34-54.41,29.6-80.85,104.22-9.33,105.78Z"/>
    </g>
  </g>
</svg>