<?xml version="1.0" encoding="UTF-8"?>
<svg xmlns="http://www.w3.org/2000/svg" version="1.1" viewBox="0 0 159.37 202.37">
  <defs>
    <style>
      .cls-1 {
        fill: #c1986c;
      }
    </style>
  </defs>
  <!-- Generator: Adobe Illustrator 28.7.1, SVG Export Plug-In . SVG Version: 1.2.0 Build 142)  -->
  <g>
    <g id="Layer_1">
      <g>
        <path class="cls-1" d="M130.29,39.62c-2.3,0-4.34,1.02-5.76,2.61-5.65-.07-11.91-9.19-14.02-17.87,0-13.8-6.11-13.62-7.56-11.65-1.43-4.65-14.31-17.88-18.6-5.72-12.88-9.3-22.18-8.58-20.74,1.43-14.66-3.93-21.82-1.07-17.53,9.3-18.6,2.86-24.68,12.49-13.23,18.94-12.52,6.81-18.6,23.98-2.15,24.33-2.75,3.18-3.05,9.33-1.39,15.01h76.49c8.74-2.07,22.71-12.78,24.02-20.88.03-.01.05-.03.08-.05.13,0,.25.04.38.04,4.28,0,7.75-3.47,7.75-7.75s-3.47-7.75-7.75-7.75Z"/>
        <path class="cls-1" d="M209.85,139.62c-2.3,0-4.34,1.02-5.76,2.61-5.65-.07-11.91-9.19-14.02-17.87,0-13.8-6.11-13.62-7.56-11.65-1.43-4.65-14.31-17.88-18.6-5.72-12.88-9.3-22.18-8.58-20.74,1.43-14.66-3.93-21.82-1.07-17.53,9.3-18.6,2.86-24.68,12.49-13.23,18.94-12.52,6.81-18.6,23.98-2.15,24.33-2.75,3.18-3.05,9.33-1.39,15.01h76.49c8.74-2.07,22.71-12.78,24.02-20.88.03-.01.05-.03.08-.05.13,0,.25.04.38.04,4.28,0,7.75-3.47,7.75-7.75s-3.47-7.75-7.75-7.75Z"/>
        <path class="cls-1" d="M50.74,139.62c-2.3,0-4.34,1.02-5.76,2.61-5.65-.07-11.91-9.19-14.02-17.87,0-13.8-6.11-13.62-7.56-11.65-1.43-4.65-14.31-17.88-18.6-5.72-12.88-9.3-22.18-8.58-20.74,1.43-14.66-3.93-21.82-1.07-17.53,9.3-18.6,2.86-24.68,12.49-13.23,18.94-12.52,6.81-18.6,23.98-2.15,24.33-2.75,3.18-3.05,9.33-1.39,15.01H26.25c8.74-2.07,22.71-12.78,24.02-20.88.03-.01.05-.03.08-.05.13,0,.25.04.38.04,4.28,0,7.75-3.47,7.75-7.75s-3.47-7.75-7.75-7.75Z"/>
      </g>
    </g>
  </g>
</svg>