<?xml version="1.0" encoding="UTF-8"?>
<svg id="Layer_1" data-name="Layer 1" xmlns="http://www.w3.org/2000/svg" version="1.1" viewBox="0 0 512 512">
  <defs>
    <style>
      .cls-1 {
        fill: #8a5f3c;
      }

      .cls-1, .cls-2, .cls-3 {
        stroke-width: 0px;
      }

      .cls-2 {
        fill: #3c2417;
      }

      .cls-3 {
        fill: #c1986c;
      }
    </style>
  </defs>
  <g id="Layer_1-2" data-name="Layer 1">
    <g>
      <g>
        <g>
          <path class="cls-2" d="M152.2,112.4c29.4-47.3,85.5-78.1,155-43.3-4.8,42.9-66.8,75.9-155,43.3Z"/>
          <path class="cls-2" d="M300.4,65.8c19.6-8.9,93.1-4.3,103.6-2.5,12.2,3.1,18,11,7,15.3-26.2,6.9-55.8,22.8-69.4,38.2-19-5.6-29.2-4.7-14.1-15,15-10.3,39.5-25.4,46.9-28.1-25.2-4.2-60.2.7-68.9,3.9-8.1-2.4-5.1-11.7-5.1-11.7h0Z"/>
          <path class="cls-1" d="M330.8,107.2c68.2,32.5,39.5,114.7-19.1,173-58.6,58.3-103.7,67.5-147.2,69.8-39.4,22.7-78.7,19.8-69.4-31.2-27.6-51.5,8.6-118.6,37.2-149.6,28.6-31,93.4-112.1,198.5-62h0Z"/>
          <path class="cls-2" d="M157.4,187.6c3.4-15.8,59.3-78.8,94.6-70,13,4.3,4.9,13.4-1.5,13.4s-47.5,4.7-79.4,61.3c-7.7,11.6-16.7,9.2-13.7-4.7Z"/>
        </g>
        <g>
          <path class="cls-3" d="M189.5,347.5c17.1,31.7,155.2-9.2,158.4-12.4,3.2-3.2,4.4-20.3,4.4-31.1,22.2-1.3,65.9-33,69.7-56.4,13.3-5.7,18.4-20.3,8.9-34.2-6.1-6.5-15.9-6.3-22.2,0-15.2.6-32.8-20.4-38.5-43.9-9.5-4.4-23.6,2.1-26.1,6.5-20.3-35.3-98-9.8-61.6,45.6-48.7,36.1-93,125.9-93,125.9h0Z"/>
          <path class="cls-1" d="M350,318.5c9,3.8,11.9,29.8-1.2,38.7-6.9,5.7-15.7,6.1-22.4,0-6.7-6.1-12-29.3,0-37.5,6.8-4.7,16.5-4.6,23.6-1.1h0Z"/>
          <circle class="cls-1" cx="423.3" cy="227" r="20.6"/>
          <circle class="cls-1" cx="340.9" cy="212.2" r="13.6"/>
          <path class="cls-1" d="M288.6,323.9c9,3.8,11.9,29.8-1.2,38.7-6.9,5.7-15.7,6.1-22.4,0-6.7-6.1-12-29.3,0-37.5,6.8-4.7,16.5-4.6,23.6-1.1h0Z"/>
        </g>
      </g>
      <g>
        <path class="cls-2" d="M131.3,397.8l18.9,4.3,12.5,38.2.8.2,7.7-33.6,16.4,3.8-13.5,58.8-18.9-4.3-12.5-38.2-.8-.2-7.7,33.6-16.4-3.8,13.5-58.8h0ZM158,385.4l4.2,6.6,6.7-4.1,10.9,2.5-13.1,10.7-12.6-2.9-7.1-15.3,10.9,2.5h0Z"/>
        <path class="cls-2" d="M212.8,413.2l18.4,1.6,17.9,62.1-18.4-1.6-2.6-9.7-22-1.9-4.2,9.1-18-1.6,28.9-58h0ZM224.6,452.3l-4.6-17.3h-.9c0,0-7.4,16.1-7.4,16.1l12.9,1.1h0Z"/>
        <path class="cls-2" d="M255.8,417l22.8-1.2,12.8,34.3h.9s9.2-35.5,9.2-35.5l22.8-1.2,3.1,60.2-16.8.9-1.8-34h-.9s-8.8,34.6-8.8,34.6l-12,.6-12.3-33.4h-.9s1.8,34,1.8,34l-16.8.9-3.1-60.2h0Z"/>
        <path class="cls-2" d="M331.5,411.7l16.5-3.1,8.3,44.9,28-5.2,2.7,14.4-44.5,8.2-11-59.3h0Z"/>
        <path class="cls-2" d="M379.8,401.9l16.2-4.5,16,58.1-16.2,4.5-16-58.1Z"/>
      </g>
    </g>
  </g>
</svg>