<?xml version="1.0" encoding="UTF-8"?>
<svg xmlns="http://www.w3.org/2000/svg" version="1.1" viewBox="0 0 512 512">
  <defs>
    <style>
      .cls-1 {
        fill: #8a5f3c;
      }

      .cls-2 {
        fill: #3c2417;
      }

      .cls-3 {
        fill: #c1986c;
      }
    </style>
  </defs>
  <!-- Generator: Adobe Illustrator 28.7.1, SVG Export Plug-In . SVG Version: 1.2.0 Build 142)  -->
  <g>
    <g id="Layer_1">
      <g>
        <g>
          <g>
            <path class="cls-2" d="M152.2,112.38c29.43-47.28,85.51-78.08,154.98-43.35-4.75,42.89-66.76,75.89-154.98,43.35Z"/>
            <path class="cls-2" d="M300.37,65.82c19.61-8.89,93.13-4.32,103.6-2.45,12.25,3.1,17.95,11.03,7.05,15.28-26.19,6.91-55.83,22.79-69.39,38.15-19.04-5.61-29.18-4.72-14.15-15.04,15.02-10.32,39.47-25.4,46.89-28.14-25.16-4.21-60.16.67-68.9,3.87-8.13-2.43-5.09-11.67-5.09-11.67Z"/>
            <path class="cls-1" d="M330.79,107.23c68.25,32.51,39.48,114.69-19.15,172.98-58.62,58.28-103.72,67.53-147.16,69.84-39.39,22.69-78.65,19.77-69.41-31.17-27.59-51.45,8.63-118.62,37.25-149.62,28.62-31,93.36-112.09,198.47-62.02Z"/>
            <path class="cls-2" d="M157.45,187.62c3.36-15.78,59.26-78.85,94.58-69.96,13.05,4.29,4.93,13.36-1.48,13.36-6.41,0-47.5,4.71-79.39,61.32-7.69,11.6-16.68,9.19-13.71-4.72Z"/>
          </g>
          <g>
            <path class="cls-3" d="M189.51,347.49c17.11,31.69,155.24-9.22,158.41-12.39,3.17-3.17,4.44-20.28,4.44-31.06,22.18-1.27,65.92-32.96,69.72-56.41,13.31-5.7,18.38-20.28,8.87-34.23-6.13-6.5-15.85-6.34-22.18,0-15.21.63-32.81-20.45-38.51-43.9-9.51-4.44-23.61,2.07-26.14,6.51-20.28-35.26-98.01-9.82-61.57,45.64-48.72,36.13-93.04,125.85-93.04,125.85Z"/>
            <path class="cls-1" d="M350.04,318.48c8.96,3.75,11.89,29.78-1.21,38.68-6.94,5.68-15.73,6.12-22.43,0-6.7-6.12-11.97-29.33,0-37.54,6.82-4.68,16.5-4.61,23.64-1.14Z"/>
            <circle class="cls-1" cx="423.33" cy="227.01" r="20.59"/>
            <circle class="cls-1" cx="340.85" cy="212.19" r="13.64"/>
            <path class="cls-1" d="M288.61,323.94c8.96,3.75,11.89,29.78-1.21,38.68-6.94,5.68-15.73,6.12-22.43,0-6.7-6.12-11.97-29.33,0-37.54,6.82-4.68,16.5-4.61,23.64-1.14Z"/>
          </g>
        </g>
        <g>
          <path class="cls-2" d="M131.3,397.81l18.89,4.33,12.46,38.2.84.19,7.69-33.59,16.37,3.75-13.46,58.78-18.89-4.33-12.46-38.2-.84-.19-7.69,33.59-16.37-3.75,13.46-58.78ZM158.01,385.36l4.23,6.62,6.69-4.12,10.92,2.5-13.06,10.71-12.6-2.88-7.1-15.32,10.92,2.5Z"/>
          <path class="cls-2" d="M212.76,413.2l18.45,1.62,17.9,62.1-18.45-1.62-2.6-9.74-21.97-1.93-4.17,9.15-18.02-1.58,28.87-58ZM224.55,452.29l-4.63-17.27-.86-.08-7.39,16.21,12.87,1.13Z"/>
          <path class="cls-2" d="M255.83,416.96l22.8-1.18,12.81,34.27.86-.04,9.21-35.41,22.8-1.18,3.11,60.22-16.78.87-1.75-33.98-.86.04-8.83,34.53-12.04.62-12.34-33.44-.86.04,1.75,33.98-16.78.87-3.11-60.22Z"/>
          <path class="cls-2" d="M331.52,411.72l16.52-3.06,8.32,44.89,27.95-5.18,2.67,14.4-44.47,8.24-10.99-59.29Z"/>
          <path class="cls-2" d="M379.78,401.91l16.19-4.47,16.03,58.13-16.19,4.47-16.03-58.13Z"/>
        </g>
      </g>
    </g>
  </g>
</svg>